<mxfile host="app.diagrams.net" modified="2023-04-10T13:53:06.619Z" agent="Mozilla/5.0 (Windows NT 10.0; Win64; x64) AppleWebKit/537.36 (KHTML, like Gecko) Chrome/111.0.0.0 Safari/537.36" version="21.1.5" etag="DRh5K2ZzDSOO-0hui79z" type="github">
  <diagram name="第 1 页" id="sHP4iZn5dKm8ZFQW3IyR">
    <mxGraphModel>
      <root>
        <mxCell id="0" />
        <mxCell id="1" parent="0" />
      </root>
    </mxGraphModel>
  </diagram>
</mxfile>
